<?xml version="1.0" encoding="UTF-8"?> <svg xmlns="http://www.w3.org/2000/svg" id="Layer_2" data-name="Layer 2" viewBox="0 0 141.63 123.16"><defs><style> .cls-1 { fill: #8dc53e; } </style></defs><g id="Layer_1-2" data-name="Layer 1"><path class="cls-1" d="M67.08,11.24c-1.97-7.17-10.87-13.47-18.45-10.48C13.31,14.71-2.46,51.58,.31,87.95c.77,10.12,2.2,20.34,9.79,27.81,7.21,7.09,18.81,9.15,28.25,5.9,19.84-6.83,26.98-29.88,23.41-48.99-1.93-10.35-8.66-20.07-18.33-24.48-1.73-.79-3.46-1.4-5.18-1.88,1.93-3.25,3.8-5.54,6.58-8.35,1.05-1.06,2.15-2.04,3.25-3.04,.43-.39,.68-.63,.8-.77,.14-.07,.4-.22,.84-.5,1.25-.79,2.47-1.62,3.76-2.35,.49-.28,5.46-2.55,3.11-1.62,7.53-2.97,12.79-10.04,10.48-18.45ZM31.51,89.67c-.1,.28-.17,.5-.25,.7-.07,.06-.33,.5-.63,1-.06-.55-.12-1.1-.17-1.65-.35-3.84-.52-7.69-.47-11.54,.01-1.04,.05-2.08,.1-3.12,0,0,.02-.01,.03-.02,.18,.05,.32,.09,.4,.11,.14,.08,.27,.16,.4,.24-.11,0,.19,.31,.41,.51,.18,.32,.37,.63,.55,.95,.07,.21,.15,.45,.25,.76,.04,.17,.56,3.43,.57,2.79,.07,1.36,.02,2.72-.03,4.09-.02,.64-.01,.98,0,1.17-.07,.12-.18,.41-.36,1-.23,1.01-.5,2.01-.82,3Z"></path><path class="cls-1" d="M141.08,11.24c-1.97-7.17-10.87-13.47-18.45-10.48-35.31,13.94-51.09,50.82-48.32,87.19,.77,10.12,2.2,20.34,9.79,27.81,7.21,7.09,18.81,9.15,28.25,5.9,19.84-6.83,26.98-29.88,23.41-48.99-1.93-10.35-8.66-20.07-18.33-24.48-1.73-.79-3.46-1.4-5.18-1.88,1.93-3.25,3.8-5.54,6.58-8.35,1.05-1.06,2.15-2.04,3.25-3.04,.43-.39,.68-.63,.8-.77,.14-.07,.4-.22,.84-.5,1.25-.79,2.47-1.62,3.76-2.35,.49-.28,5.46-2.55,3.11-1.62,7.53-2.97,12.79-10.04,10.48-18.45Zm-35.57,78.43c-.1,.28-.17,.5-.25,.7-.07,.06-.33,.5-.63,1-.06-.55-.12-1.1-.17-1.65-.35-3.84-.52-7.69-.47-11.54,.01-1.04,.05-2.08,.1-3.12,0,0,.02-.01,.03-.02,.18,.05,.32,.09,.4,.11,.14,.08,.27,.16,.4,.24-.11,0,.19,.31,.41,.51,.18,.32,.37,.63,.55,.95,.07,.21,.15,.45,.25,.76,.04,.17,.56,3.43,.57,2.79,.07,1.36,.02,2.72-.03,4.09-.02,.64-.01,.98,0,1.17-.07,.12-.18,.41-.36,1-.23,1.01-.5,2.01-.82,3Z"></path></g></svg> 